<svg xmlns="http://www.w3.org/2000/svg" xmlns:xlink="http://www.w3.org/1999/xlink" contentStyleType="text/css" data-diagram-type="DESCRIPTION" height="1783px" preserveAspectRatio="none" style="width:1632px;height:1783px;background:#FAFAFA;" version="1.1" viewBox="0 0 1632 1783" width="1632px" zoomAndPan="magnify"><defs><filter height="300%" id="f1ol4q85k37446" width="300%" x="-1" y="-1"><feGaussianBlur result="blurOut" stdDeviation="2"/><feColorMatrix in="blurOut" result="blurOut2" type="matrix" values="0 0 0 0 0 0 0 0 0 0 0 0 0 0 0 0 0 0 .4 0"/><feOffset dx="4" dy="4" in="blurOut2" result="blurOut3"/><feBlend in="SourceGraphic" in2="blurOut3" mode="normal"/></filter></defs><g><rect fill="#FAFAFA" height="1783" style="stroke:none;stroke-width:1;" width="1632" x="0" y="0"/><!--cluster UI--><g class="cluster" data-entity="UI" data-source-line="22" data-uid="ent0007" id="cluster_UI"><rect fill="#FAFAFA" height="387.29" rx="2.5" ry="2.5" style="stroke:#31176B;stroke-width:1;" width="237" x="221.63" y="1172.38"/><path d="M315.5753,1172.38 L315.5753,1186.0245 L305.5753,1196.0245 L221.63,1196.0245" fill="none" style="stroke:#31176B;stroke-width:1;"/><text fill="#000000" font-family="Padauk" font-size="14" font-weight="bold" lengthAdjust="spacing" textLength="83.9453" x="224.63" y="1187.1886">Mobile Device</text></g><!--cluster API--><g class="cluster" data-entity="API" data-source-line="28" data-uid="ent0012" id="cluster_API"><polygon fill="#FAFAFA" filter="url(#f1ol4q85k37446)" points="727.63,592.09,737.63,582.09,1298.63,582.09,1298.63,726.73,1288.63,736.73,727.63,736.73,727.63,592.09" style="stroke:#181818;stroke-width:1;"/><line style="stroke:#181818;stroke-width:1;" x1="1288.63" x2="1298.63" y1="592.09" y2="582.09"/><line style="stroke:#181818;stroke-width:1;" x1="727.63" x2="1288.63" y1="592.09" y2="592.09"/><line style="stroke:#181818;stroke-width:1;" x1="1288.63" x2="1288.63" y1="592.09" y2="736.73"/><text fill="#000000" font-family="Padauk" font-size="14" font-weight="bold" lengthAdjust="spacing" textLength="80.7051" x="968.7775" y="608.8986">REST Service</text></g><!--cluster US--><g class="cluster" data-entity="US" data-source-line="33" data-uid="ent0015" id="cluster_US"><path d="M346.9129,378.135 C354.0299,366.679 363.1631,366.3766 371.4778,376.7896 C379.9469,366.1356 387.3405,364.5987 395.5906,377.0186 C403.9481,364.9809 416.1206,363.9259 422.5968,378.8996 C429.3723,367.4828 437.5915,367.3053 446.5179,376.3899 C453.4422,363.0751 462.8269,363.236 470.6513,375.5421 C478.0309,364.6236 486.1962,367.4924 492.0008,377.1744 C497.1103,363.7826 508.2299,362.1674 516.4488,374.1823 C523.261,359.8781 535.8662,363.8155 542.56,374.3069 C550.2126,364.606 561.0092,367.0376 565.5585,377.7954 C572.6218,365.461 584.0099,366.3342 591.1577,377.7042 C597.7813,367.8158 608.6808,368.3751 613.7993,379.3385 C619.1871,364.1741 630.7086,363.9391 640.0541,375.442 C647.305,365.0478 658.2316,364.8757 663.0673,377.8231 C675.4121,365.1025 684.4709,369.7907 691.63,383.44 C693.5262,381.3778 695.3332,382.2204 696.1121,384.574 C709.5613,394.3208 713.4604,404.6877 696.9216,415.2265 C710.7058,423.5769 711.2876,435.3257 696.4092,443.1503 C708.3357,450.4549 707.0614,462.1512 696.4368,469.4794 C709.5339,484.4964 703.2609,500.5926 684.63,505.09 C686.7086,504.0987 688.4155,504.7323 688.583,507.2456 C682.9936,521.8059 670.2798,522.0035 662.4344,509.4188 C656.323,519.605 648.1536,522.0917 640.0033,511.6341 C631.3847,523.8856 621.77,525.7611 612.9467,511.8457 C607.5453,523.0036 598.5061,526.0134 588.968,516.6884 C583.3354,527.1378 572.1485,530.2919 565.5327,517.6879 C558.6125,527.3664 548.2433,527.2137 542.1563,516.7222 C537.6469,527.6808 528.068,531.001 519.2466,521.5662 C508.3474,531.4945 499.1368,531.5185 492.8559,516.6509 C484.7456,526.839 474.2221,527.9473 467.2915,515.3286 C460.9775,527.0421 450.8141,527.4054 443.7144,516.1346 C436.2128,527.7824 424.1369,527.0008 418.6308,514.096 C409.4043,523.5289 401.7649,521.834 396.6813,509.8501 C387.76,521.1739 377.5507,520.8295 371.486,506.9898 C358.5469,521.9267 342.64,516.1168 338.63,498.09 C340.9242,498.4992 341.6334,500.4208 340.1202,502.2078 C324.4865,496.8798 323.5654,482.7761 334.5424,472.4587 C319.6909,463.6946 317.6664,453.7761 330.1656,441.1843 C317.5554,428.7535 322.245,420.5071 335.6958,413.2322 C322.6968,396.9853 325.9955,383.8756 345.63,376.44 C346.8649,376.3109 347.2465,377.077 346.9129,378.135" fill="#FAFAFA" style="stroke:#31176B;stroke-width:1;"/><text fill="#000000" font-family="Padauk" font-size="14" font-weight="bold" lengthAdjust="spacing" textLength="107.3105" x="461.4747" y="395.2486">Upstream System</text></g><!--cluster Microservices--><g class="cluster" data-entity="Microservices" data-source-line="38" data-uid="ent0018" id="cluster_Microservices"><path d="M60.9736,888.8651 C79.9347,862.5088 97.3241,867.6835 112.9987,892.2245 C126.5132,865.0077 142.6278,868.5391 161.3691,886.6466 C178.1871,867.5583 199.773,867.7617 211.3792,892.5825 C224.2255,870.3924 247.6895,868.0668 260.501,892.619 C272.1738,872.2388 287.2369,872.0323 302.5403,888.4741 C315.0612,861.3913 336.9401,863.7119 352.7595,885.0534 C369.7606,859.2535 388.4743,859.7756 403.6799,886.7848 C423.1912,859.4382 440.2748,866.496 455.9583,890.6689 C468.7136,862.4936 494.2897,863.5982 507.3817,890.3537 C521.2115,864.4771 540.3772,865.9798 558.1353,886.0107 C575.6237,864.0316 594.6536,870.788 604.5662,893.8247 C617.6783,869.5811 631.7748,868.0721 650.7778,887.6064 C665.3264,859.8428 690.2911,860.9244 704.1248,888.2982 C720.8589,865.839 744.2392,867.3778 754.63,894.73 C758.7433,893.0332 761.6669,895.3441 760.8384,899.7541 C781.7596,911.8003 787.9575,927.8142 767.6675,945.9524 C795.3946,956.5971 798.5964,981.2149 775.3718,999.2278 C795.7258,1021.4967 793.5498,1042.0394 764.7232,1054.9016 C781.0939,1077.8545 775.0232,1095.858 747.63,1103.38 C752.3981,1103.5707 753.2318,1106.2956 751.3041,1110.1305 C737.8223,1130.264 720.9511,1131.4101 705.8977,1111.9321 C690.099,1141.9359 666.7143,1136.5886 650.6959,1112.1549 C635.8964,1133.3502 619.7953,1132.9015 603.8696,1113.4525 C587.399,1130.4063 570.9886,1131.7719 558.5745,1108.8452 C544.8279,1137.0325 517.9313,1133.4664 503.1676,1109.9349 C487.2895,1132.2245 473.3738,1132.22 456.8936,1110.5689 C441.3632,1136.9912 422.021,1140.5858 403.4257,1113.6395 C386.979,1135.147 371.8474,1138.7861 355.2015,1113.8462 C339.3834,1140.3023 321.0389,1142.0319 303.7126,1115.3063 C288.8763,1132.4644 268.3716,1129.2238 258.9721,1108.829 C244.0722,1131.9384 222.8671,1138.0577 206.4902,1110.3544 C195.229,1132.9333 172.9464,1132.613 158.8497,1113.6023 C143.5947,1136.1165 119.9267,1137.6864 105.6149,1112.5486 C80.9646,1136.1442 56.8491,1128.1249 47.63,1096.38 C50.7994,1098.5081 50.9262,1100.9405 47.8255,1103.2471 C24.0316,1087.6423 27.3771,1062.7072 50.6973,1049.6257 C27.405,1038.1908 23.4296,1019.5312 41.4264,1000.3309 C20.6637,982.4656 22.0934,963.4801 49.2699,953.6737 C24.7088,929.0448 19.8053,907.5318 54.63,887.73 C57.1187,885.2579 59.6149,885.0226 60.9736,888.8651" fill="#FAFAFA" style="stroke:#31176B;stroke-width:1;"/><text fill="#000000" font-family="Padauk" font-size="14" font-weight="bold" lengthAdjust="spacing" textLength="79.0918" x="361.5841" y="906.5386">Microservices</text></g><!--cluster VS--><g class="cluster" data-entity="VS" data-source-line="39" data-uid="ent0019" id="cluster_VS"><rect fill="#FAFAFA" height="144.65" rx="2.5" ry="2.5" style="stroke:#31176B;stroke-width:1;" width="222" x="71.63" y="934.73"/><path d="M178.8234,934.73 L178.8234,948.3745 L168.8234,958.3745 L71.63,958.3745" fill="none" style="stroke:#31176B;stroke-width:1;"/><text fill="#000000" font-family="Padauk" font-size="14" font-weight="bold" lengthAdjust="spacing" textLength="97.1934" x="74.63" y="949.5386">Vehicle Services</text></g><!--cluster NS--><g class="cluster" data-entity="NS" data-source-line="42" data-uid="ent0021" id="cluster_NS"><rect fill="#FAFAFA" height="144.65" rx="2.5" ry="2.5" style="stroke:#31176B;stroke-width:1;" width="397" x="333.63" y="934.73"/><path d="M466.1573,934.73 L466.1573,948.3745 L456.1573,958.3745 L333.63,958.3745" fill="none" style="stroke:#31176B;stroke-width:1;"/><text fill="#000000" font-family="Padauk" font-size="14" font-weight="bold" lengthAdjust="spacing" textLength="122.5273" x="336.63" y="949.5386">Notification Services</text></g><!--cluster M--><g class="cluster" data-entity="M" data-source-line="48" data-uid="ent0024" id="cluster_M"><path d="M517.0143,1377.4285 C523.6595,1367.0515 535.603,1365.8633 541.0194,1378.6992 C544.9812,1367.4568 553.9982,1362.2791 563.5303,1372.9865 C572.7329,1360.5001 581.3747,1360.9953 590.4936,1373.0784 C597.2722,1361.7615 605.1813,1362.2422 613.4274,1371.4377 C621.1447,1355.3702 631.75,1354.4356 641.7794,1369.3198 C649.3876,1358.4724 656.5486,1358.3985 665.1108,1368.2441 C671.3532,1357.2556 679.6542,1356.0601 688.0919,1365.8116 C697.7747,1355.8571 705.995,1356.6956 713.2579,1368.5979 C719.9254,1355.9781 731.5632,1355.0623 738.7353,1368.0969 C748.4117,1357.8322 756.8141,1357.8155 763.0534,1371.5759 C773.6185,1358.2714 781.9356,1358.0809 790.211,1373.724 C797.1769,1364.0076 807.4411,1362.3012 813.9505,1374.2247 C824.187,1362.2469 832.0714,1365.332 838.7157,1377.8555 C848.8905,1363.7939 863.4282,1368.2762 868.63,1383.02 C870.2041,1381.7754 872.1715,1382.4524 872.5373,1384.4681 C889.1525,1392.0277 890.6988,1406.8849 876.0581,1417.7509 C890.8438,1426.1896 888.775,1437.4298 875.2906,1445.0744 C891.8322,1451.6766 895.2012,1463.3034 882.8117,1476.7707 C894.5683,1488.4621 893.8581,1502.7065 876.5759,1508.7324 C891.7456,1518.0201 891.8613,1533.8701 874.9354,1541.5537 C888.0995,1559.2605 884.4296,1571.989 861.63,1575.67 C863.5543,1575.7474 864.6157,1576.3726 863.8782,1578.5372 C856.8625,1591.2808 848.9614,1591.671 840.7102,1579.6951 C833.1311,1591.7013 822.8304,1594.4649 813.5244,1581.5814 C805.4682,1593.1281 796.856,1589.2417 790.8283,1579.4263 C783.1652,1593.1576 773.0697,1590.9845 765.3381,1579.4954 C758.8348,1592.2429 751.3829,1593.5038 741.5645,1582.8654 C732.7698,1593.9932 724.5789,1592.8733 716.5794,1581.9639 C708.6817,1592.916 700.4724,1593.8605 691.7963,1582.8419 C684.3276,1594.7517 674.7378,1597.3946 665.343,1584.9324 C655.997,1594.1287 647.7361,1595.2855 641.4092,1581.7533 C633.9257,1595.2756 621.5802,1597.559 613.3203,1582.5167 C605.6924,1592.9596 596.7049,1593.2801 591.1411,1580.5417 C584.6235,1590.4149 574.3286,1593.5221 567.665,1580.6926 C558.414,1593.3515 549.7192,1590.4389 542.6506,1578.4755 C528.1674,1593.0687 511.2953,1590.1431 506.63,1568.67 C508.4685,1568.9312 509.1441,1569.8076 508.3686,1571.613 C492.8837,1563.2788 492.6574,1547.9844 507.6026,1538.9368 C492.5314,1532.6742 492.1983,1520.5071 503.3308,1510.3313 C490.0517,1501.4009 485.4692,1490.6418 500.9808,1479.5158 C484.9422,1466.1381 490.7211,1456.5473 505.3261,1447.3033 C491.7987,1437.7389 488.6407,1425.4146 504.8691,1415.4237 C486.6468,1401.0054 492.2463,1381.6324 513.63,1376.02 C515.1199,1374.9282 516.8878,1375.2444 517.0143,1377.4285" fill="#FAFAFA" style="stroke:#31176B;stroke-width:1;"/><text fill="#000000" font-family="Padauk" font-size="14" font-weight="bold" lengthAdjust="spacing" textLength="63.1094" x="656.0753" y="1394.8286">Monitoring</text></g><!--cluster Monitoring Services--><g class="cluster" data-entity="Monitoring Services" data-source-line="49" data-uid="ent0025" id="cluster_Monitoring Services"><rect fill="#FAFAFA" height="128.65" rx="2.5" ry="2.5" style="stroke:#31176B;stroke-width:1;" width="237" x="530.63" y="1423.02"/><path d="M659.1925,1423.02 L659.1925,1436.6645 L649.1925,1446.6645 L530.63,1446.6645" fill="none" style="stroke:#31176B;stroke-width:1;"/><text fill="#000000" font-family="Padauk" font-size="14" font-weight="bold" lengthAdjust="spacing" textLength="118.5625" x="533.63" y="1437.8286">Monitoring Services</text></g><!--cluster DQ--><g class="cluster" data-entity="DQ" data-source-line="57" data-uid="ent0031" id="cluster_DQ"><rect fill="#FAFAFA" height="124.64" rx="2.5" ry="2.5" style="stroke:#31176B;stroke-width:1;" width="381" x="714.63" y="1652.67"/><path d="M846.6652,1652.67 L846.6652,1666.3145 L836.6652,1676.3145 L714.63,1676.3145" fill="none" style="stroke:#31176B;stroke-width:1;"/><text fill="#000000" font-family="Padauk" font-size="14" font-weight="bold" lengthAdjust="spacing" textLength="122.0352" x="717.63" y="1667.4786">Dead Letter Queues</text></g><!--entity App--><g class="entity" data-entity="App" data-source-line="23" data-uid="ent0008" id="entity_App"><rect fill="#31176B" filter="url(#f1ol4q85k37446)" height="50.6445" rx="5" ry="5" style="stroke:#181818;stroke-width:0.5;" width="63.7207" x="245.77" y="1242.38"/><rect fill="#31176B" height="10" style="stroke:#181818;stroke-width:0.5;" width="15" x="289.4907" y="1247.38"/><rect fill="#31176B" height="2" style="stroke:#181818;stroke-width:0.5;" width="4" x="287.4907" y="1249.38"/><rect fill="#31176B" height="2" style="stroke:#181818;stroke-width:0.5;" width="4" x="287.4907" y="1253.38"/><text fill="#FAFAFA" font-family="Padauk" font-size="14" lengthAdjust="spacing" textLength="23.7207" x="260.77" y="1276.1886">App</text></g><!--entity Email--><g class="entity" data-entity="Email" data-source-line="24" data-uid="ent0009" id="entity_Email"><rect fill="#31176B" filter="url(#f1ol4q85k37446)" height="50.6445" rx="5" ry="5" style="stroke:#181818;stroke-width:0.5;" width="70.5977" x="344.33" y="1242.38"/><rect fill="#31176B" height="10" style="stroke:#181818;stroke-width:0.5;" width="15" x="394.9277" y="1247.38"/><rect fill="#31176B" height="2" style="stroke:#181818;stroke-width:0.5;" width="4" x="392.9277" y="1249.38"/><rect fill="#31176B" height="2" style="stroke:#181818;stroke-width:0.5;" width="4" x="392.9277" y="1253.38"/><text fill="#FAFAFA" font-family="Padauk" font-size="14" lengthAdjust="spacing" textLength="30.5977" x="359.33" y="1276.1886">Email</text></g><!--entity SMS--><g class="entity" data-entity="SMS" data-source-line="25" data-uid="ent0010" id="entity_SMS"><rect fill="#31176B" filter="url(#f1ol4q85k37446)" height="50.6445" rx="5" ry="5" style="stroke:#181818;stroke-width:0.5;" width="67.0293" x="246.12" y="1485.02"/><rect fill="#31176B" height="10" style="stroke:#181818;stroke-width:0.5;" width="15" x="293.1493" y="1490.02"/><rect fill="#31176B" height="2" style="stroke:#181818;stroke-width:0.5;" width="4" x="291.1493" y="1492.02"/><rect fill="#31176B" height="2" style="stroke:#181818;stroke-width:0.5;" width="4" x="291.1493" y="1496.02"/><text fill="#FAFAFA" font-family="Padauk" font-size="14" lengthAdjust="spacing" textLength="27.0293" x="261.12" y="1518.8286">SMS</text></g><!--entity Validation Layer--><g class="entity" data-entity="Validation Layer" data-source-line="29" data-uid="ent0013" id="entity_Validation Layer"><rect fill="#31176B" filter="url(#f1ol4q85k37446)" height="50.6445" rx="5" ry="5" style="stroke:#181818;stroke-width:0.5;" width="131.4512" x="751.9" y="662.09"/><rect fill="#31176B" height="10" style="stroke:#181818;stroke-width:0.5;" width="15" x="863.3512" y="667.09"/><rect fill="#31176B" height="2" style="stroke:#181818;stroke-width:0.5;" width="4" x="861.3512" y="669.09"/><rect fill="#31176B" height="2" style="stroke:#181818;stroke-width:0.5;" width="4" x="861.3512" y="673.09"/><text fill="#FAFAFA" font-family="Padauk" font-size="14" lengthAdjust="spacing" textLength="91.4512" x="766.9" y="695.8986">Validation Layer</text></g><!--entity DB--><g class="entity" data-entity="DB" data-source-line="30" data-uid="ent0014" id="entity_DB"><path d="M917.96,672.59 C917.96,662.59 949.6299,662.59 949.6299,662.59 C949.6299,662.59 981.2998,662.59 981.2998,672.59 L981.2998,702.2345 C981.2998,712.2345 949.6299,712.2345 949.6299,712.2345 C949.6299,712.2345 917.96,712.2345 917.96,702.2345 L917.96,672.59" fill="#888888" filter="url(#f1ol4q85k37446)" style="stroke:#181818;stroke-width:0.5;"/><path d="M917.96,672.59 C917.96,682.59 949.6299,682.59 949.6299,682.59 C949.6299,682.59 981.2998,682.59 981.2998,672.59" fill="none" style="stroke:#181818;stroke-width:0.5;"/><text fill="#FAFAFA" font-family="Padauk" font-size="14" lengthAdjust="spacing" textLength="43.3398" x="927.96" y="700.3986">Primary</text></g><!--entity Vehicle Detection--><g class="entity" data-entity="Vehicle Detection" data-source-line="34" data-uid="ent0016" id="entity_Vehicle Detection"><rect fill="#31176B" filter="url(#f1ol4q85k37446)" height="50.6445" rx="5" ry="5" style="stroke:#181818;stroke-width:0.5;" width="139.709" x="354.78" y="438.44"/><rect fill="#31176B" height="10" style="stroke:#181818;stroke-width:0.5;" width="15" x="474.489" y="443.44"/><rect fill="#31176B" height="2" style="stroke:#181818;stroke-width:0.5;" width="4" x="472.489" y="445.44"/><rect fill="#31176B" height="2" style="stroke:#181818;stroke-width:0.5;" width="4" x="472.489" y="449.44"/><text fill="#FAFAFA" font-family="Padauk" font-size="14" lengthAdjust="spacing" textLength="99.709" x="369.78" y="472.2486">Vehicle Detection</text></g><!--entity Toll Calculation--><g class="entity" data-entity="Toll Calculation" data-source-line="35" data-uid="ent0017" id="entity_Toll Calculation"><rect fill="#31176B" filter="url(#f1ol4q85k37446)" height="50.6445" rx="5" ry="5" style="stroke:#181818;stroke-width:0.5;" width="127.2539" x="529" y="438.44"/><rect fill="#31176B" height="10" style="stroke:#181818;stroke-width:0.5;" width="15" x="636.2539" y="443.44"/><rect fill="#31176B" height="2" style="stroke:#181818;stroke-width:0.5;" width="4" x="634.2539" y="445.44"/><rect fill="#31176B" height="2" style="stroke:#181818;stroke-width:0.5;" width="4" x="634.2539" y="449.44"/><text fill="#FAFAFA" font-family="Padauk" font-size="14" lengthAdjust="spacing" textLength="87.2539" x="544" y="472.2486">Toll Calculation</text></g><!--entity Toll Charge Handler--><g class="entity" data-entity="Toll Charge Handler" data-source-line="40" data-uid="ent0020" id="entity_Toll Charge Handler"><rect fill="#31176B" filter="url(#f1ol4q85k37446)" height="50.6445" rx="5" ry="5" style="stroke:#181818;stroke-width:0.5;" width="154.4199" x="95.42" y="1004.73"/><rect fill="#31176B" height="10" style="stroke:#181818;stroke-width:0.5;" width="15" x="229.8399" y="1009.73"/><rect fill="#31176B" height="2" style="stroke:#181818;stroke-width:0.5;" width="4" x="227.8399" y="1011.73"/><rect fill="#31176B" height="2" style="stroke:#181818;stroke-width:0.5;" width="4" x="227.8399" y="1015.73"/><text fill="#FAFAFA" font-family="Padauk" font-size="14" lengthAdjust="spacing" textLength="114.4199" x="110.42" y="1038.5386">Toll Charge Handler</text></g><!--entity SMS/Email Service--><g class="entity" data-entity="SMS/Email Service" data-source-line="43" data-uid="ent0022" id="entity_SMS/Email Service"><rect fill="#31176B" filter="url(#f1ol4q85k37446)" height="50.6445" rx="5" ry="5" style="stroke:#181818;stroke-width:0.5;" width="151.2207" x="358.02" y="1004.73"/><rect fill="#31176B" height="10" style="stroke:#181818;stroke-width:0.5;" width="15" x="489.2407" y="1009.73"/><rect fill="#31176B" height="2" style="stroke:#181818;stroke-width:0.5;" width="4" x="487.2407" y="1011.73"/><rect fill="#31176B" height="2" style="stroke:#181818;stroke-width:0.5;" width="4" x="487.2407" y="1015.73"/><text fill="#FAFAFA" font-family="Padauk" font-size="14" lengthAdjust="spacing" textLength="111.2207" x="373.02" y="1038.5386">SMS/Email Service</text></g><!--entity Push Notifications--><g class="entity" data-entity="Push Notifications" data-source-line="44" data-uid="ent0023" id="entity_Push Notifications"><rect fill="#31176B" filter="url(#f1ol4q85k37446)" height="50.6445" rx="5" ry="5" style="stroke:#181818;stroke-width:0.5;" width="143.0859" x="544.09" y="1004.73"/><rect fill="#31176B" height="10" style="stroke:#181818;stroke-width:0.5;" width="15" x="667.1759" y="1009.73"/><rect fill="#31176B" height="2" style="stroke:#181818;stroke-width:0.5;" width="4" x="665.1759" y="1011.73"/><rect fill="#31176B" height="2" style="stroke:#181818;stroke-width:0.5;" width="4" x="665.1759" y="1015.73"/><text fill="#FAFAFA" font-family="Padauk" font-size="14" lengthAdjust="spacing" textLength="103.0859" x="559.09" y="1038.5386">Push Notifications</text></g><!--entity Logs--><g class="entity" data-entity="Logs" data-source-line="53" data-uid="ent0028" id="entity_Logs"><path d="M786.16,1495.52 C786.16,1485.52 809.6268,1485.52 809.6268,1485.52 C809.6268,1485.52 833.0936,1485.52 833.0936,1495.52 L833.0936,1525.1645 C833.0936,1535.1645 809.6268,1535.1645 809.6268,1535.1645 C809.6268,1535.1645 786.16,1535.1645 786.16,1525.1645 L786.16,1495.52" fill="#888888" filter="url(#f1ol4q85k37446)" style="stroke:#181818;stroke-width:0.5;"/><path d="M786.16,1495.52 C786.16,1505.52 809.6268,1505.52 809.6268,1505.52 C809.6268,1505.52 833.0936,1505.52 833.0936,1495.52" fill="none" style="stroke:#181818;stroke-width:0.5;"/><text fill="#FAFAFA" font-family="Padauk" font-size="14" lengthAdjust="spacing" textLength="26.9336" x="796.16" y="1523.3286">Logs</text></g><!--entity Telemetry--><g class="entity" data-entity="Telemetry" data-source-line="50" data-uid="ent0026" id="entity_Telemetry"><rect fill="#31176B" filter="url(#f1ol4q85k37446)" height="50.6445" rx="5" ry="5" style="stroke:#181818;stroke-width:0.5;" width="96.6973" x="546.28" y="1485.02"/><rect fill="#31176B" height="10" style="stroke:#181818;stroke-width:0.5;" width="15" x="622.9773" y="1490.02"/><rect fill="#31176B" height="2" style="stroke:#181818;stroke-width:0.5;" width="4" x="620.9773" y="1492.02"/><rect fill="#31176B" height="2" style="stroke:#181818;stroke-width:0.5;" width="4" x="620.9773" y="1496.02"/><text fill="#FAFAFA" font-family="Padauk" font-size="14" lengthAdjust="spacing" textLength="56.6973" x="561.28" y="1518.8286">Telemetry</text></g><!--entity Alerts--><g class="entity" data-entity="Alerts" data-source-line="51" data-uid="ent0027" id="entity_Alerts"><rect fill="#31176B" filter="url(#f1ol4q85k37446)" height="50.6445" rx="5" ry="5" style="stroke:#181818;stroke-width:0.5;" width="73.4824" x="677.89" y="1485.02"/><rect fill="#31176B" height="10" style="stroke:#181818;stroke-width:0.5;" width="15" x="731.3724" y="1490.02"/><rect fill="#31176B" height="2" style="stroke:#181818;stroke-width:0.5;" width="4" x="729.3724" y="1492.02"/><rect fill="#31176B" height="2" style="stroke:#181818;stroke-width:0.5;" width="4" x="729.3724" y="1496.02"/><text fill="#FAFAFA" font-family="Padauk" font-size="14" lengthAdjust="spacing" textLength="33.4824" x="692.89" y="1518.8286">Alerts</text></g><!--entity VDQ--><g class="entity" data-entity="VDQ" data-source-line="58" data-uid="ent0032" id="entity_VDQ"><path d="M743.92,1722.67 L861.3399,1722.67 C866.3399,1722.67 866.3399,1737.9923 866.3399,1737.9923 C866.3399,1737.9923 866.3399,1753.3145 861.3399,1753.3145 L743.92,1753.3145 C738.92,1753.3145 738.92,1737.9923 738.92,1737.9923 C738.92,1737.9923 738.92,1722.67 743.92,1722.67" fill="#EFA63D" style="stroke:#181818;stroke-width:0.5;"/><path d="M861.3399,1722.67 C856.3399,1722.67 856.3399,1737.9923 856.3399,1737.9923 C856.3399,1753.3145 861.3399,1753.3145 861.3399,1753.3145" fill="none" style="stroke:#181818;stroke-width:0.5;"/><text fill="#121212" font-family="Padauk" font-size="14" lengthAdjust="spacing" textLength="107.4199" x="743.92" y="1741.4786">Vehicle Event DLQ</text></g><!--entity NDQ--><g class="entity" data-entity="NDQ" data-source-line="59" data-uid="ent0033" id="entity_NDQ"><path d="M906.05,1722.67 L1047.2043,1722.67 C1052.2043,1722.67 1052.2043,1737.9923 1052.2043,1737.9923 C1052.2043,1737.9923 1052.2043,1753.3145 1047.2043,1753.3145 L906.05,1753.3145 C901.05,1753.3145 901.05,1737.9923 901.05,1737.9923 C901.05,1737.9923 901.05,1722.67 906.05,1722.67" fill="#EFA63D" style="stroke:#181818;stroke-width:0.5;"/><path d="M1047.2043,1722.67 C1042.2043,1722.67 1042.2043,1737.9923 1042.2043,1737.9923 C1042.2043,1753.3145 1047.2043,1753.3145 1047.2043,1753.3145" fill="none" style="stroke:#181818;stroke-width:0.5;"/><text fill="#121212" font-family="Padauk" font-size="14" lengthAdjust="spacing" textLength="131.1543" x="906.05" y="1741.4786">Notification Event DLQ</text></g><!--entity G--><g class="entity" data-entity="G" data-source-line="4" data-uid="ent0002" id="entity_G"><ellipse cx="398.627" cy="141.6" fill="#AA0A7D" rx="8" ry="8" style="stroke:#181818;stroke-width:0.5;"/><path d="M398.627,149.6 L398.627,176.6 M385.627,157.6 L411.627,157.6 M398.627,176.6 L385.627,191.6 M398.627,176.6 L411.627,191.6" fill="none" style="stroke:#181818;stroke-width:0.5;"/><text fill="#AA0A7D" font-family="Padauk" font-size="14" lengthAdjust="spacing" textLength="33.4141" x="381.92" y="206.9086">Guest</text></g><!--entity H--><g class="entity" data-entity="H" data-source-line="5" data-uid="ent0003" id="entity_H"><ellipse cx="168.63" cy="1478.52" fill="#AA0A7D" rx="8" ry="8" style="stroke:#181818;stroke-width:0.5;"/><path d="M168.63,1486.52 L168.63,1513.52 M155.63,1494.52 L181.63,1494.52 M168.63,1513.52 L155.63,1528.52 M168.63,1513.52 L181.63,1528.52" fill="none" style="stroke:#181818;stroke-width:0.5;"/><text fill="#AA0A7D" font-family="Padauk" font-size="14" lengthAdjust="spacing" textLength="26.209" x="155.5255" y="1543.8286">Host</text></g><g class="entity" data-entity="GMN4" data-source-line="8" data-uid="ent0005" id="entity_GMN4"><path d="M767.2,53.4 L767.2,293.4391 L1188.0516,293.4391 L1188.0516,63.4 L1178.0516,53.4 L767.2,53.4" fill="#AA0A7D" style="stroke:#181818;stroke-width:0.5;"/><path d="M1178.0516,53.4 L1178.0516,63.4 L1188.0516,63.4 L1178.0516,53.4" fill="#AA0A7D" style="stroke:#181818;stroke-width:1;"/><text fill="#FAFAFA" font-family="Padauk" font-size="13" lengthAdjust="spacing" textLength="347.5215" x="773.2" y="71.2223">Design a system for sending real-time toll payment notifications</text><text fill="#FAFAFA" font-family="Padauk" font-size="13" lengthAdjust="spacing" textLength="242.2266" x="773.2" y="90.3922">when their vehicles pass through toll booths.</text><text fill="#FAFAFA" font-family="Padauk" font-size="13" lengthAdjust="spacing" textLength="370.792" x="773.2" y="109.5621">Assume vehicle detection and toll calculation are already handled by</text><text fill="#FAFAFA" font-family="Padauk" font-size="13" lengthAdjust="spacing" textLength="293.6553" x="773.2" y="128.732">an upstream system, which inputs events in a service.</text><text fill="#FAFAFA" font-family="Padauk" font-size="13" lengthAdjust="spacing" textLength="0" x="773.2" y="147.902">&#160;</text><text fill="#FAFAFA" font-family="Padauk" font-size="13" lengthAdjust="spacing" textLength="95.9004" x="773.2" y="167.0719">The system must:</text><text fill="#FAFAFA" font-family="Padauk" font-size="13" lengthAdjust="spacing" textLength="0" x="773.2" y="186.2418">&#160;</text><text fill="#FAFAFA" font-family="Padauk" font-size="13" lengthAdjust="spacing" textLength="399.8516" x="773.2" y="205.4117">- Receive toll charge events (vehicle ID, timestamp, toll amount, location)</text><text fill="#FAFAFA" font-family="Padauk" font-size="13" lengthAdjust="spacing" textLength="364.9141" x="773.2" y="224.5816">- Notify the user associated with the vehicle via email and/or SMS</text><text fill="#FAFAFA" font-family="Padauk" font-size="13" lengthAdjust="spacing" textLength="269.5342" x="773.2" y="243.7516">- Ensure at-least-once delivery of the notification</text><text fill="#FAFAFA" font-family="Padauk" font-size="13" lengthAdjust="spacing" textLength="276.9229" x="773.2" y="262.9215">- Persist the toll charge record for future reference</text><text fill="#FAFAFA" font-family="Padauk" font-size="13" lengthAdjust="spacing" textLength="0" x="773.2" y="282.0914">&#160;</text></g><!--entity V--><g class="entity" data-entity="V" data-source-line="27" data-uid="ent0011" id="entity_V"><polygon fill="#FAFAFA" filter="url(#f1ol4q85k37446)" points="651.43,158.1,661.43,148.1,731.8304,148.1,731.8304,188.7445,721.8304,198.7445,651.43,198.7445,651.43,158.1" style="stroke:#181818;stroke-width:0.5;"/><line style="stroke:#181818;stroke-width:0.5;" x1="721.8304" x2="731.8304" y1="158.1" y2="148.1"/><line style="stroke:#181818;stroke-width:0.5;" x1="651.43" x2="721.8304" y1="158.1" y2="158.1"/><line style="stroke:#181818;stroke-width:0.5;" x1="721.8304" x2="721.8304" y1="158.1" y2="198.7445"/><text fill="#000000" font-family="Padauk" font-size="14" lengthAdjust="spacing" textLength="40.4004" x="666.43" y="181.9086">Vehicle</text></g><!--entity VQ--><g class="entity" data-entity="VQ" data-source-line="55" data-uid="ent0029" id="entity_VQ"><path d="M969.81,448.44 L1063.4409,448.44 C1068.4409,448.44 1068.4409,463.7623 1068.4409,463.7623 C1068.4409,463.7623 1068.4409,479.0845 1063.4409,479.0845 L969.81,479.0845 C964.81,479.0845 964.81,463.7623 964.81,463.7623 C964.81,463.7623 964.81,448.44 969.81,448.44" fill="#EFA63D" style="stroke:#181818;stroke-width:0.5;"/><path d="M1063.4409,448.44 C1058.4409,448.44 1058.4409,463.7623 1058.4409,463.7623 C1058.4409,479.0845 1063.4409,479.0845 1063.4409,479.0845" fill="none" style="stroke:#181818;stroke-width:0.5;"/><text fill="#121212" font-family="Padauk" font-size="14" lengthAdjust="spacing" textLength="83.6309" x="969.81" y="467.2486">Vehicle Events</text></g><!--entity NQ--><g class="entity" data-entity="NQ" data-source-line="56" data-uid="ent0030" id="entity_NQ"><path d="M886.95,1014.73 L1004.3152,1014.73 C1009.3152,1014.73 1009.3152,1030.0523 1009.3152,1030.0523 C1009.3152,1030.0523 1009.3152,1045.3745 1004.3152,1045.3745 L886.95,1045.3745 C881.95,1045.3745 881.95,1030.0523 881.95,1030.0523 C881.95,1030.0523 881.95,1014.73 886.95,1014.73" fill="#EFA63D" style="stroke:#181818;stroke-width:0.5;"/><path d="M1004.3152,1014.73 C999.3152,1014.73 999.3152,1030.0523 999.3152,1030.0523 C999.3152,1045.3745 1004.3152,1045.3745 1004.3152,1045.3745" fill="none" style="stroke:#181818;stroke-width:0.5;"/><text fill="#121212" font-family="Padauk" font-size="14" lengthAdjust="spacing" textLength="107.3652" x="886.95" y="1033.5386">Notification Events</text></g><g class="entity" data-entity="GMN53" data-source-line="82" data-uid="ent0054" id="entity_GMN53"><path d="M210.77,149.25 L210.77,197.5898 A0,0 0 0 0 210.77,197.5898 L346.4975,197.5898 A0,0 0 0 0 346.4975,197.5898 L346.4975,177.42 L381.56,173.42 L346.4975,169.42 L346.4975,159.25 L336.4975,149.25 L210.77,149.25 A0,0 0 0 0 210.77,149.25" fill="#AA0A7D" style="stroke:#181818;stroke-width:0.5;"/><path d="M336.4975,149.25 L336.4975,159.25 L346.4975,159.25 L336.4975,149.25" fill="#AA0A7D" style="stroke:#181818;stroke-width:0.5;"/><text fill="#FAFAFA" font-family="Padauk" font-size="13" lengthAdjust="spacing" textLength="90.9619" x="216.77" y="167.0723">"Rents a Vehicle,</text><text fill="#FAFAFA" font-family="Padauk" font-size="13" lengthAdjust="spacing" textLength="109.9287" x="221.5688" y="186.2422">drives in a highway"</text></g><g class="entity" data-entity="GMN56" data-source-line="83" data-uid="ent0057" id="entity_GMN56"><path d="M111.8,1243.53 L111.8,1291.8698 A0,0 0 0 0 111.8,1291.8698 L152,1291.8698 L166.33,1469.88 L160,1291.8698 L197.4699,1291.8698 A0,0 0 0 0 197.4699,1291.8698 L197.4699,1253.53 L187.4699,1243.53 L111.8,1243.53 A0,0 0 0 0 111.8,1243.53" fill="#AA0A7D" style="stroke:#181818;stroke-width:0.5;"/><path d="M187.4699,1243.53 L187.4699,1253.53 L197.4699,1253.53 L187.4699,1243.53" fill="#AA0A7D" style="stroke:#181818;stroke-width:0.5;"/><text fill="#FAFAFA" font-family="Padauk" font-size="13" lengthAdjust="spacing" textLength="28.7676" x="117.8" y="1261.3523">"New</text><text fill="#FAFAFA" font-family="Padauk" font-size="13" lengthAdjust="spacing" textLength="64.6699" x="117.8" y="1280.5222">Notification"</text></g><!--link G to GMN4--><g class="link" data-entity-1="G" data-entity-2="GMN4" data-source-line="8" data-uid="lnk6" id="link_G_GMN4"><path d="M415.79,157.86 C464.1,115.94 605.99,6 732.13,38.4 C747.09,42.25 762.11,47.21 776.96,52.96" fill="none" id="G-GMN4" style="stroke:#444444;stroke-width:1;stroke-dasharray:7.0,7.0;"/></g><!--link G to V--><g class="link" data-entity-1="G" data-entity-2="V" data-source-line="62" data-uid="lnk34" id="link_G_V"><path d="M415.65,173.42 C461.02,173.42 579.85,173.42 644.94,173.42" fill="none" id="G-to-V" style="stroke:#444444;stroke-width:3;"/><polygon fill="#444444" points="650.94,173.42,641.94,169.42,645.94,173.42,641.94,177.42,650.94,173.42" style="stroke:#444444;stroke-width:3;"/><text fill="#000000" font-family="Padauk" font-size="13" lengthAdjust="spacing" textLength="195.8633" x="438.1788" y="163.2423">Triggers Events (in the Background)</text></g><!--link V to US--><g class="link" data-entity-1="V" data-entity-2="US" data-source-line="63" data-uid="lnk35" id="link_V_US"><path d="M691.63,199.01 C691.63,233.33 691.63,297.76 691.63,354.3462 C691.63,357.8829 691.63,361.3889 691.63,364.855 C691.63,365.7215 691.63,360.5855 691.63,361.4469" fill="none" id="V-to-US" style="stroke:#444444;stroke-width:3;"/><polygon fill="#444444" points="691.63,367.4469,695.63,358.4469,691.63,362.4469,687.63,358.4469,691.63,367.4469" style="stroke:#444444;stroke-width:3;"/><text fill="#000000" font-family="Padauk" font-size="13" lengthAdjust="spacing" textLength="139.001" x="697.4288" y="337.2623">Sends requests Upstream</text></g><!--link US to VQ--><g class="link" data-entity-1="US" data-entity-2="VQ" data-source-line="64" data-uid="lnk36" id="link_US_VQ"><path d="M699.7122,463.77 C699.8685,463.77 700.027,463.77 700.1875,463.77 C700.5086,463.77 700.838,463.77 701.1757,463.77 C701.8511,463.77 702.5594,463.77 703.2998,463.77 C709.2227,463.77 717.1954,463.77 726.7383,463.77 C745.8241,463.77 771.1906,463.77 799.0013,463.77 C854.6225,463.77 914.02,463.77 958.5,463.77" fill="none" id="US-to-VQ" style="stroke:#444444;stroke-width:3;"/><polygon fill="#444444" points="964.5,463.77,955.5,459.77,959.5,463.77,955.5,467.77,964.5,463.77" style="stroke:#444444;stroke-width:3;"/><text fill="#000000" font-family="Padauk" font-size="13" lengthAdjust="spacing" textLength="231.5625" x="715.1988" y="453.5923">TollEvent(vehicleId, time, amount, location)</text></g><!--link VQ to API--><g class="link" data-entity-1="VQ" data-entity-2="API" data-source-line="65" data-uid="lnk37" id="link_VQ_API"><path d="M1016.63,479.31 C1016.63,491.445 1016.63,510.15 1016.63,531.4564 C1016.63,542.1096 1016.63,553.4132 1016.63,564.871 C1016.63,567.7355 1016.63,570.6096 1016.63,573.4855 C1016.63,574.9235 1016.63,576.362 1016.63,577.8 C1016.63,578.519 1016.63,579.2378 1016.63,579.9564 C1016.63,580.3158 1016.63,574.675 1016.63,575.0342" fill="none" id="VQ-to-API" style="stroke:#444444;stroke-width:3;"/><polygon fill="#444444" points="1016.63,581.0342,1020.63,572.0342,1016.63,576.0342,1012.63,572.0342,1016.63,581.0342" style="stroke:#444444;stroke-width:3;"/><text fill="#000000" font-family="Padauk" font-size="13" lengthAdjust="spacing" textLength="83.9033" x="1022.4288" y="550.9123">Consume Event</text></g><!--link API to API--><g class="link" data-entity-1="API" data-entity-2="API" data-source-line="66" data-uid="lnk38" id="link_API_API"><path d="M1322.26,686.98 C1334.13,668.96 1357.34,669.1 1357.34,687.41 C1357.34,705.72 1337.4306,710.8706 1325.5606,692.8506" fill="none" id="API-to-API" style="stroke:#444444;stroke-width:3;"/><polygon fill="#444444" points="1322.26,687.84,1323.8704,697.5563,1325.0105,692.0155,1330.5513,693.1556,1322.26,687.84" style="stroke:#444444;stroke-width:3;"/><text fill="#000000" font-family="Padauk" font-size="13" lengthAdjust="spacing" textLength="239.9287" x="1368.1388" y="690.7323">Validates Event: Guest Reservation/time, etc</text></g><!--link API to VS--><g class="link" data-entity-1="API" data-entity-2="VS" data-source-line="67" data-uid="lnk39" id="link_API_VS"><path d="M1009.3921,736.943 C1009.3447,737.0457 1009.2971,737.1482 1009.2491,737.2505 C1009.1532,737.4553 1009.0561,737.6594 1008.9578,737.8628 C1008.5648,738.6767 1008.1528,739.48 1007.7212,740.271 C1006.8578,741.8528 1005.9154,743.3848 1004.8871,744.851 C1002.8305,747.7834 1000.43,750.4525 997.63,752.73 C977.09,769.44 548.68,786.98 522.63,791.73 C441.67,806.5 403.62,785.35 344.63,842.73 C329.3075,857.635 317.9531,876.4881 309.5419,896.4434 C305.3363,906.4211 301.8664,916.6743 299.0042,926.8473 C297.5731,931.9338 296.2939,937.0003 295.1507,942.0022 C294.8648,943.2527 294.5875,944.4991 294.3184,945.7409 C294.1839,946.3617 294.0514,946.9814 293.921,947.5998 C293.8557,947.909 295.0135,942.3438 294.9493,942.6523" fill="none" id="API-to-VS" style="stroke:#444444;stroke-width:3;"/><polygon fill="#444444" points="293.7268,948.5265,299.4766,940.5302,294.7455,943.6314,291.6444,938.9003,293.7268,948.5265" style="stroke:#444444;stroke-width:3;"/><text fill="#000000" font-family="Padauk" font-size="13" lengthAdjust="spacing" textLength="151.9248" x="528.4288" y="805.5523">Forward Event: Toll Charges</text></g><!--reverse link API to VS--><g class="link" data-entity-1="API" data-entity-2="VS" data-source-line="68" data-uid="lnk41" id="link_API_VS"><path d="M1006.3904,742.2699 C1006.0055,743.0934 1007.7992,739.0642 1007.3781,739.8676 C1006.536,741.4744 1005.6198,743.0373 1004.6234,744.541 C1002.6305,747.5483 1000.3163,750.3188 997.63,752.73 C887.38,851.7 454.55,775.82 341.63,871.73 C327.71,883.555 317.25,899.0875 309.39,915.7866 C305.46,924.1361 302.18,932.7773 299.4425,941.3925 C298.0738,945.7001 296.8406,950.0012 295.7297,954.2561 C295.1742,956.3835 294.6493,958.4994 294.1532,960.5988 C294.0292,961.1237 293.907,961.6475 293.7866,962.1702" fill="none" id="API-backto-VS" style="stroke:#808080;stroke-width:2;"/><polygon fill="#808080" points="1008.872,736.8072,1001.5078,743.347,1006.804,741.3595,1008.7915,746.6557,1008.872,736.8072" style="stroke:#808080;stroke-width:2;"/><text fill="#585858" font-family="Padauk" font-size="13" font-weight="bold" lengthAdjust="spacing" textLength="129.7461" x="914.1011" y="805.5523">Persisting Toll Charges</text></g><!--link VS to NQ--><g class="link" data-entity-1="VS" data-entity-2="NQ" data-source-line="69" data-uid="lnk42" id="link_VS_NQ"><path d="M293.6363,965.0453 C293.6948,964.8053 293.7537,964.5651 293.8131,964.3247 C294.0505,963.3632 294.2948,962.3987 294.5462,961.432 C295.0489,959.4985 295.5799,957.5558 296.1408,955.6083 C297.2626,951.7134 298.504,947.7998 299.8776,943.9044 C302.6247,936.1134 305.9009,928.395 309.8077,921.0437 C317.6213,906.3412 327.9575,893.1075 341.63,883.7 C414.31,833.69 654.55,856.98 738.63,883.7 C821.26,909.96 895.0875,978.1975 926.6675,1010.2275" fill="none" id="VS-to-NQ" style="stroke:#444444;stroke-width:3;"/><polygon fill="#444444" points="930.88,1014.5,927.4096,1005.2828,927.3696,1010.9395,921.7129,1010.8995,930.88,1014.5" style="stroke:#444444;stroke-width:3;"/><text fill="#000000" font-family="Padauk" font-size="13" lengthAdjust="spacing" textLength="110.0176" x="688.4288" y="856.5523">Enqueue Notification</text></g><!--link NQ to NS--><g class="link" data-entity-1="NQ" data-entity-2="NS" data-source-line="70" data-uid="lnk43" id="link_NQ_NS"><path d="M881.63,1030.05 C850.28,1030.05 812.765,1030.05 782.05,1030.05 C766.6925,1030.05 753.035,1030.05 742.6981,1030.05 C740.1139,1030.05 737.7372,1030.05 735.5934,1030.05 C734.5215,1030.05 733.5078,1030.05 732.5555,1030.05 C732.0793,1030.05 731.6185,1030.05 731.1735,1030.05 C731.0622,1030.05 736.9519,1030.05 736.8426,1030.05" fill="none" id="NQ-to-NS" style="stroke:#444444;stroke-width:3;"/><polygon fill="#444444" points="730.8426,1030.05,739.8426,1034.05,735.8426,1030.05,739.8426,1026.05,730.8426,1030.05" style="stroke:#444444;stroke-width:3;"/><text fill="#000000" font-family="Padauk" font-size="13" lengthAdjust="spacing" textLength="117.4316" x="746.2688" y="1019.8723">Broadcast Notification</text></g><!--link NS to UI--><g class="link" data-entity-1="NS" data-entity-2="UI" data-source-line="71" data-uid="lnk44" id="link_NS_UI"><path d="M719.5761,1079.4038 C719.518,1079.6995 719.4588,1079.9956 719.3987,1080.2919 C719.2785,1080.8844 719.1545,1081.4779 719.0265,1082.0722 C718.7705,1083.2606 718.4987,1084.4519 718.2102,1085.6437 C717.6331,1088.0274 716.9892,1090.4134 716.2711,1092.7842 C713.3988,1102.2675 709.34,1111.5075 703.63,1119.38 C666.02,1171.215 604.1425,1207.7125 550.9975,1231.4138 C524.425,1243.2644 500.0356,1251.9159 481.9544,1257.6861 C472.9138,1260.5712 465.4502,1262.7359 460.0792,1264.22 C459.7435,1264.3127 465.2028,1262.8175 464.8836,1262.905" fill="none" id="NS-to-UI" style="stroke:#444444;stroke-width:3;"/><polygon fill="#444444" points="459.0968,1264.4903,468.8339,1265.9702,463.9191,1263.1692,466.7201,1258.2545,459.0968,1264.4903" style="stroke:#444444;stroke-width:3;"/><text fill="#000000" font-family="Padauk" font-size="13" lengthAdjust="spacing" textLength="110.5762" x="699.7988" y="1141.2023">Receives Notification</text></g><!--link API to DQ--><g class="link" data-entity-1="API" data-entity-2="DQ" data-source-line="72" data-uid="lnk45" id="link_API_DQ"><path d="M1191.0656,736.7961 C1192.313,737.7257 1193.5368,738.673 1194.7353,739.6384 C1213.9119,755.085 1226.63,775.1575 1226.63,801.23 C1226.63,801.23 1226.63,801.23 1226.63,1511.34 C1226.63,1569.315 1192.9575,1624.8825 1158.7588,1666.3687 C1141.6594,1687.1119 1124.4284,1704.3347 1111.2092,1716.578 C1107.9044,1719.6388 1104.8503,1722.3884 1102.1117,1724.804 C1100.7424,1726.0118 1099.452,1727.136 1098.2485,1728.174 C1097.6468,1728.6929 1097.0668,1729.1903 1096.5096,1729.6657 C1096.2309,1729.9035 1100.5326,1726.2533 1100.2655,1726.48" fill="none" id="API-to-DQ" style="stroke:#E20024;stroke-width:2;"/><polygon fill="#E20024" points="1095.6909,1730.3624,1105.1411,1727.5886,1099.5031,1727.1271,1099.9646,1721.4891,1095.6909,1730.3624" style="stroke:#E20024;stroke-width:2;"/><text fill="#E20024" font-family="Padauk" font-size="13" font-weight="bold" lengthAdjust="spacing" textLength="128.7686" x="1234.0411" y="1141.2023">Event Validation Failed</text></g><!--link API to DQ--><g class="link" data-entity-1="API" data-entity-2="DQ" data-source-line="74" data-uid="lnk47" id="link_API_DQ"><path d="M1305.0561,732.6512 C1310.4496,734.1811 1309.9525,734.1233 1315.0864,735.7537 C1325.3541,739.0145 1335.0564,742.4791 1344.0089,746.1577 C1379.8188,760.8719 1403.63,779.01 1403.63,801.23 C1403.63,801.23 1403.63,801.23 1403.63,1511.34 C1403.63,1596.955 1325.86,1653.1575 1247.4825,1688.06 C1208.2938,1705.5113 1168.9531,1717.6375 1139.1059,1725.4528 C1124.1823,1729.3605 1111.6321,1732.1904 1102.6609,1734.0693 C1100.4181,1734.5391 1098.399,1734.9494 1096.6224,1735.3022 C1096.4003,1735.3463 1102.0686,1734.2281 1101.8541,1734.2704" fill="none" id="API-DQ" style="stroke:#444444;stroke-width:2;"/><polygon fill="#444444" points="1299.2839,731.0139,1306.8507,737.3181,1304.0941,732.3783,1309.0338,729.6217,1299.2839,731.0139" style="stroke:#444444;stroke-width:2;"/><polygon fill="#444444" points="1095.9676,1735.4318,1105.5717,1737.614,1100.873,1734.464,1104.023,1729.7653,1095.9676,1735.4318" style="stroke:#444444;stroke-width:2;"/><text fill="#000000" font-family="Padauk" font-size="13" lengthAdjust="spacing" textLength="214.8174" x="1409.4288" y="1141.2023">Retry strategies (e.g. fallback SMS, etc)</text></g><!--link NS to DQ--><g class="link" data-entity-1="NS" data-entity-2="DQ" data-source-line="73" data-uid="lnk46" id="link_NS_DQ"><path d="M730.7695,1037.6021 C730.9454,1037.7466 731.1237,1037.8934 731.3045,1038.0423 C732.0275,1038.638 732.7892,1039.2685 733.587,1039.9323 C739.9697,1045.2434 748.6656,1052.6944 758.3838,1061.6138 C777.82,1079.4525 801.345,1103.165 818.63,1127.38 C965.14,1332.59 988.89,1397.45 1068.63,1636.67 C1069.4988,1639.2763 1070.332,1641.9346 1071.1307,1644.6293 C1071.5301,1645.9767 1071.9209,1647.3331 1072.3032,1648.6966 C1072.4944,1649.3783 1072.6834,1650.0618 1072.8704,1650.7469 C1072.9638,1651.0894 1073.0568,1651.4323 1073.1492,1651.7756 C1073.1954,1651.9472 1071.6912,1646.3226 1071.7371,1646.4944" fill="none" id="NS-to-DQ" style="stroke:#E20024;stroke-width:2;"/><polygon fill="#E20024" points="1073.2874,1652.2907,1074.8261,1642.5628,1071.9955,1647.4605,1067.0978,1644.6299,1073.2874,1652.2907" style="stroke:#E20024;stroke-width:2;"/><text fill="#E20024" font-family="Padauk" font-size="13" font-weight="bold" lengthAdjust="spacing" textLength="106.1074" x="956.62" y="1336.8423">Failed Notifications</text></g><!--link API to UI--><g class="link" data-entity-1="API" data-entity-2="UI" data-source-line="76" data-uid="lnk48" id="link_API_UI"><path d="M1006.9409,742.4766 C1006.8446,742.6809 1009.1297,737.7491 1009.0311,737.9521 C1008.6364,738.764 1008.2226,739.5651 1007.7889,740.3535 C1006.9213,741.9303 1005.9738,743.4561 1004.9392,744.9146 C1002.87,747.8317 1000.4525,750.48 997.63,752.73 C984.16,763.47 395.63,788.95 378.63,791.73 C242.87,813.94 163.39,762.61 79.63,871.73 C12.61,959.04 6,1037.57 79.63,1119.38 C132.1,1177.67 373.15,1103.02 430.63,1156.38 C435.1238,1160.5513 438.8144,1165.3663 441.8315,1170.6034 C442.0201,1170.9307 442.206,1171.2597 442.3893,1171.5903 C442.481,1171.7556 439.7041,1166.651 439.7945,1166.8171" fill="none" id="API-UI" style="stroke:#585858;stroke-width:1;stroke-dasharray:7.0,7.0;"/><polygon fill="#585858" points="1009.467,737.0343,1002.0496,743.5137,1007.3619,741.5695,1009.3061,746.8818,1009.467,737.0343" style="stroke:#585858;stroke-width:1;"/><polygon fill="#585858" points="442.6624,1172.0873,441.874,1162.2701,440.2725,1167.6955,434.847,1166.094,442.6624,1172.0873" style="stroke:#585858;stroke-width:1;"/><text fill="#585858" font-family="Padauk" font-size="13" font-weight="bold" lengthAdjust="spacing" textLength="61.7373" x="112.1011" y="856.5523">Sync State</text></g><!--link API to M--><g class="link" data-entity-1="API" data-entity-2="M" data-source-line="77" data-uid="lnk49" id="link_API_M"><path d="M1057.8104,737.2684 C1057.9263,737.4509 1058.042,737.6337 1058.1575,737.8168 C1058.3885,738.183 1058.6187,738.5506 1058.848,738.9196 C1059.3067,739.6575 1059.7619,740.4007 1060.2132,741.149 C1063.8238,747.1359 1067.1847,753.4517 1070.0613,759.9972 C1075.8144,773.0881 1079.63,787.0975 1079.63,801.23 C1079.63,801.23 1079.63,801.23 1079.63,1268.7 C1079.63,1338.71 1028.515,1398.1 976.6013,1440.3638 C950.6444,1461.4956 924.4878,1478.3459 904.4211,1490.1014 C894.3877,1495.9791 885.8768,1500.5832 879.6746,1503.8118 C878.8993,1504.2154 878.1601,1504.5975 877.4585,1504.9579 C877.2831,1505.048 882.4507,1502.4023 882.28,1502.4897" fill="none" id="API-to-M" style="stroke:#E20024;stroke-width:2;"/><polygon fill="#E20024" points="876.9394,1505.2241,886.7734,1504.6829,881.3899,1502.9454,883.1274,1497.562,876.9394,1505.2241" style="stroke:#E20024;stroke-width:2;"/><text fill="#E20024" font-family="Padauk" font-size="13" font-weight="bold" lengthAdjust="spacing" textLength="85.6553" x="1087.0411" y="1033.3723">Error Reporting</text></g><!--link UI to M--><g class="link" data-entity-1="UI" data-entity-2="M" data-source-line="78" data-uid="lnk50" id="link_UI_M"><path d="M458.8177,1270.4023 C459.7798,1270.6029 460.8211,1270.8199 461.9387,1271.0528 C464.1739,1271.5187 466.7142,1272.0482 469.536,1272.6363 C480.823,1274.9889 496.6133,1278.2802 515.3909,1282.1955 C552.9463,1290.0259 602.4513,1300.3519 651.78,1310.6538 C750.4375,1331.2575 848.39,1351.765 848.63,1352.02 C851.5713,1355.2063 854.2263,1358.5959 856.6192,1362.152 C857.8157,1363.93 855.9539,1360.5492 857.0223,1362.4058" fill="none" id="UI-to-M" style="stroke:#E20024;stroke-width:2;"/><polygon fill="#E20024" points="860.015,1367.6061,858.9929,1357.8105,857.5211,1363.2725,852.059,1361.8007,860.015,1367.6061" style="stroke:#E20024;stroke-width:2;"/><text fill="#E20024" font-family="Padauk" font-size="13" font-weight="bold" lengthAdjust="spacing" textLength="85.6553" x="814.4611" y="1336.8423">Error Reporting</text></g><!--reverse link M to DQ--><g class="link" data-entity-1="M" data-entity-2="DQ" data-source-line="79" data-uid="lnk51" id="link_M_DQ"><path d="M854.067,1589.3523 C853.8375,1589.9349 855.421,1585.7925 855.1832,1586.3707 C853.2805,1590.9964 851.1088,1595.4725 848.63,1599.67 C845.91,1604.27 841.82,1602.78 839.63,1607.67 C835.81,1616.18 833.15,1621.95 839.63,1628.67 C857.32,1646.98 1049.31,1620.08 1068.63,1636.67 C1072.8675,1640.3063 1076.3498,1644.5666 1079.1987,1649.2423 C1079.5548,1649.8268 1079.901,1650.4177 1080.2376,1651.0148 C1080.4059,1651.3133 1080.5717,1651.6133 1080.7352,1651.9148 C1080.8169,1652.0656 1080.8981,1652.2167 1080.9786,1652.3682" fill="none" id="M-backto-DQ" style="stroke:#585858;stroke-width:1;stroke-dasharray:7.0,7.0;"/><polygon fill="#585858" points="856.2253,1583.7539,849.2556,1590.7126,854.4267,1588.4192,856.7202,1593.5903,856.2253,1583.7539" style="stroke:#585858;stroke-width:1;"/><text fill="#585858" font-family="Padauk" font-size="13" font-weight="bold" lengthAdjust="spacing" textLength="81.5293" x="840.63" y="1621.4923">Persists Errors</text></g><!--link UI to H--><g class="link" data-entity-1="UI" data-entity-2="H" data-source-line="80" data-uid="lnk52" id="link_UI_H"><path d="M221.4066,1360.373 C221.1692,1360.6385 220.9329,1360.905 220.6976,1361.1726 C219.7564,1362.2429 218.8321,1363.3299 217.9242,1364.4324 C214.2928,1368.8427 210.9255,1373.5022 207.8036,1378.3406 C201.5597,1388.0175 196.2969,1398.41 191.8637,1408.955 C182.9975,1430.045 178.5882,1445.8539 175.1482,1463.6589" fill="none" id="UI-to-H" style="stroke:#444444;stroke-width:3;"/><polygon fill="#444444" points="174.01,1469.55,179.6446,1461.4722,174.9585,1464.6408,171.7899,1459.9546,174.01,1469.55" style="stroke:#444444;stroke-width:3;"/></g><!--SRC=[ZLPDR-Cu3BtxLt2zbnR8nxrO3D1EEcs19gYRDfUPFIWoOmihInv9Jc0i-j-N-d3Yf3qia8CZaOzyV2JjFuJYiYknCn9gvrfxCvyRTfXLmjNTjhDek5OEbPjntSnRe_UefvpDHKbdmlLpWpixhv6LTjumePB9J7IDp3B6dJRmqA5rm2myG3fvrF7WCSkKTWX6LBK3lOE73621LbGA6DZUEcnWHmuMLIbK1GQPd3hH83Wj9RIiRoWF812n4vmvePK5mZZKgC3LA0piiHPSeYLZQ-dCwAwge_jMQrVR6TdVMjiHQBA54Xro3mPCbT6MCyaxoUAXGM2ISYbxgCb2OWdRtiTb2hhMEhfgKleJoaNm6eHgEsS1zvIlfN-U7vgzuEZZq- -jne5nqrbt4q-dy8eSnJuHvZKp5GueLqE-Jui9-AfOnvfs4arPeplb9Y1rhCjrG5lvIlM-DE359H6ive8vOd0WoSF5WBeN3914bRuASr9XlLm7a7jbEry2DvN8h9jgnNtD9ALfUY-ZHnbh4hnUq5X1kllBCHc3N9iooBphd0UcdaA319fbfBj7egUTOQHGljHRGRajq9Skzqtq_WJ_KW00wj1MAzyFjsrxSNBlULoSUJeVG1rO4kucaWw8ctJsUhz-WtLKALpSliHO9unymwGeOriyinvDJjVqdssP9OGN8nfc-k2ykCi-ienBtPMGlmzTiWwIHoBhJ-19YSNGZ_dv_Pilu_TJP-Qd24l1ZKuTPWDkAk20cNZPo7ZzgOO9F6hq6BeyaFiuGQr64f_ZhRx0etBFWmp7abvQl7IsXZ6eZG5FfBGIj3_y9g0Wop6jqTKfayiStb1YWyxqb_r2t9nDv8xgFUlAKkpV7NQZkjs7sOjLAuRBiqgCB5R5qBSBsXRmZCxHq1NUAHeiYf3aLp5WyLp4C8lYPF8vqj5kHNPKgWUOElqDDW0taCCRxTQA9Yzb1LSYB4QuO_oVYdQXAg_pREDTfjzy1tgVDKsTfIdyxHStzMNgrJoZ-uXTa9q7fnO9kCCcUYhZ8ffyNZyKfKXXQ8nycEyaiD-w0I7F_705z7IT9WjJwZVfFVAAlgi3vZo6GiUFtbE2tqGMFxGvC5eioNlKpjHMP3Fz-MTbMF-tn9sBIP5RkNrcMvHN-R2kV4ETkLu7ty1ZLOH0zofgCvOcprP5PBEAsTmPpKfEs_BIR01xVmfsQTtR2xD03uqXmuMFIez3eh49Hdle1yqObfIen_xI9rfSZDfr2FBNT33tkT2e08bFAbI2Shh2MJM37PDoI-tZ5sYeFcaRVMVbTfQOd0gvxXM7jIEC52BbjBoWOGoz0LwnrSONdMpV_x_fCiQEYHz39mbjTB09CbHx-FBmueSF3-Bx6WQ4GPh2oIy5fGbQXDTrJHyf1zRdqT7frlizajyA3_1BdUdr7m00]--></g></svg>